<?xml version="1.0" encoding="utf-8"?>
<!-- Generator: Adobe Illustrator 20.1.0, SVG Export Plug-In . SVG Version: 6.00 Build 0)  -->
<svg version="1.1" xmlns="http://www.w3.org/2000/svg" xmlns:xlink="http://www.w3.org/1999/xlink" x="0px" y="0px"
	 viewBox="0 0 393 378" style="enable-background:new 0 0 393 378;" xml:space="preserve">
<style type="text/css">
	.st0{fill-rule:evenodd;clip-rule:evenodd;stroke:#000000;stroke-width:4.3827;stroke-linecap:round;stroke-miterlimit:10;}
	
		.st1{fill-rule:evenodd;clip-rule:evenodd;fill:#59B13B;stroke:#59B13B;stroke-width:4.3827;stroke-linecap:square;stroke-miterlimit:10;}
</style>
<g id="Livello_2">
	<path class="st0" d="M30.2,341.7c26.5-20.4,50.8-38.2,82.1-56.2c3-1.7,5.2-4.7,6-8.1c3-13.6,0.3-27.7-1.1-42.2
		c-0.3-2.8,2-5.1,4.7-5.1l2.5,0c1.6,0,2.8-1.4,2.6-3c-0.8-5.1-1.6-10.1-2.4-15.2c5.8,10,11.9,19.5,24.9,21.2
		c-10.6-7.5-19.9-17.6-27.4-31.5c-4.3-7.2-5-14.8-5.4-22.5c0-0.4-0.4-0.6-0.7-0.6c-6.3,1-10.3-3.9-11.7-15.5
		c-1.5-13.7-4.5-28.6,2.1-35.7l0,0c-0.2-36,2-67.9,16.2-78.4c6.9-7.7,13.8-7.2,20.7-3.2c0.3,0.2,0.6,0.1,0.8-0.2
		c9.7-13,26.2-15.3,47.7-9.9c0,0,0,0,0.1,0c16.8,5.7,35.1,10,38.9,28.1c0,0,0,0.1,0,0.1c11.4,23.2,10.5,46.4,9.1,69.7
		c0,0.2,0.1,0.4,0.3,0.6c3.1,2,5.3,4.6,5.5,8.9c-2.8,28.4,4.1,30.7-20.4,40.1c-0.2,0.1-0.4,0.3-0.4,0.5c-1.8,8.5-3.7,17-5.5,25.6
		c-0.4,1.7,1,3.3,2.7,3.1c0.2,0,0.4,0,0.5-0.1c3.1-0.3,5.8,2.1,5.7,5.3c-0.3,12.6-0.2,25.7,8.5,37c2.2,2.8,5.3,4.6,8.8,5.3
		c34,7.3,67.5,16.7,100,31.7c4.5,2.1,7.9,4.6,10.1,10.4c0.1,0.4-0.1,0.9-0.5,0.9L31.7,345.2C29.7,345.5,28.6,342.9,30.2,341.7z
		 M204.6,119.6c6.4,1.1,12.2,3,15.7,5.3c0.4,0.3,1,0,1-0.5l-0.4-17.7c-0.8-17.5-14.4-27.5-34.4-36c-7-3-7.2,6-18.2,5.6
		c-9.6-0.3-12.6-7.2-25.1-2.7c-3,1.1-5.8,2.3-8.4,3.5l0.9,0.7l0,0c-4.8,10.4-7.1,20.6-2,30.6c0.2,0.4,0,0.8-0.4,0.9
		c-6.2,1.5-8.2,4.2-8.7,7.3c11.6-2.5,30.2,0.9,34.7,6.8c0.1,0.1,0.3,0.2,0.5,0.2c4.4,0.1,8.7,0.2,13.1,0.3c0.2,0,0.4-0.1,0.5-0.2
		c1.6-2.1,4.8-3.6,8.7-4.4 M181.9,119.4c6.4-1.3,14.9-1.1,22.7,0.2 M204.6,149.3c-7.7,2.8-16.2,3.1-22.7-0.3 M181.9,149
		c-6.5-3.4-10.9-10.6-10.3-22.5c0-0.4-0.3-0.7-0.6-0.7c-3.8-0.1-7.6-0.1-11.4-0.2c0,0.3,0,0.6,0,0.8c1.5,0.2,3,0.4,4.6,0.6
		c-5.9,8.2-5.9,32.6-5,36.5c0.9,3.9,2.5,8.3,8.1,6.6c8.8-5,13.1,5,8.4,5.1c-11.9,0.2-11.4,4-15.5,4.4c-0.1,0-0.2,0-0.2,0
		c-3.7-0.5-8.2-3.1-12-3.5c-0.3,0-0.5-0.2-0.6-0.5c-1.1-4.1-0.2-6.1,2.4-11c-1.3,6.7,0,10.4,6.4,8.5c-3.7-2.2-3.3-4.3,1.1-6.5
		c0.2-0.1,0.4-0.3,0.4-0.6c0.5-9.2-1.4-11.3-5.9-6.1c-0.4,0.5-1.3,0.1-1.1-0.5c1.4-5.8,2.7-11.6,4.1-17.4c0.1-0.6-0.6-1-1.1-0.6
		c-12.9,11.3-26.3,8.5-39.9-5.3c-0.5-0.5-1.4,0.1-1,0.7c7.1,12.2,14.2,24.3,21.4,36.4c0.2,0.4,0.2,0.9,0,1.3c-7.7,13-6.5,26,1.2,39
		c0,0.1,0.1,0.1,0.1,0.2c6.9,6.2,11.2,14.2,28.7,12.8l0,0c6.9,3.2,13.9,5.1,21.4,0c11-5.4,20.7-12.2,28.2-21.6
		c-0.3,4.2-2.4,7.8-4.8,11.4c1.9-1.1,3.8-2.3,5.8-3.4c0.2-0.1,0.3-0.2,0.3-0.4c2.4-10.4,4.4-19.6,6.8-29.9c0.2-0.9,0.8-1.7,1.7-2
		c6.9-2.9,21.6-3.1,17.8-36.6c1-4.1-0.1-7-4.1-8.4c-0.1,0-0.3-0.1-0.4,0c-8,1.7-10.1,12.2-12.7,22.1c-0.2,0.7-1.2,0.6-1.3-0.1
		c-0.2-7.5-0.5-14.9-0.7-22.4c0-1.5-0.4-1.2,0.6-1.2c-3.5,6.8-10.4,12.2-18,15 M363.5,140.4"/>
</g>
<g id="Livello_3">
	<path class="st1" d="M203.8,149.5v-30.1c-6.2-1-12.9-1.3-18.6-0.6v31.5C190.8,152.1,197.5,151.7,203.8,149.5z"/>
</g>
</svg>
